<svg xmlns="http://www.w3.org/2000/svg" viewBox="0 0 1400 220" width="1400" height="220"><defs><linearGradient id="ink" gradientUnits="userSpaceOnUse" x1="0" y1="220" x2="1400" y2="0"><stop offset="0" stop-color="#10cfe6"/><stop offset="0.6" stop-color="#1b2fe0"/><stop offset="1" stop-color="#2a12e6"/></linearGradient><linearGradient id="fadeg" gradientUnits="userSpaceOnUse" x1="1000" y1="0" x2="420" y2="0"><stop offset="0" stop-color="#fff" stop-opacity="0"/><stop offset="1" stop-color="#fff"/></linearGradient><mask id="fade" maskUnits="userSpaceOnUse" x="0" y="0" width="1400" height="220"><rect width="1400" height="220" fill="url(#fadeg)"/></mask></defs><g mask="url(#fade)" fill="none" stroke="url(#ink)" stroke-linecap="round" stroke-linejoin="round"><path d="M20 208 L95 78.1 L170 208 Z" stroke-width="1.1"/><path d="M57.5 208 L113.8 110.6" stroke-width="1.1"/><path d="M95 208 L132.5 143" stroke-width="1.1"/><path d="M113 208 L134 171.6" stroke-width="1.1"/><path d="M134 171.6 L155 208" stroke-width="1.1"/><path d="M188 208 L223 147.4" stroke-width="1.0" stroke-opacity="0.55"/><path d="M198 208 L221 168.2" stroke-width="1.0" stroke-opacity="0.4"/><path d="M230 208 L275 130.1 L320 208 Z" stroke-width="1.1" stroke-opacity="0.6"/><path d="M261.5 208 L290.8 157.3" stroke-width="1.1" stroke-opacity="0.6"/><path d="M285.8 208 L298.4 186.2" stroke-width="1.1" stroke-opacity="0.6"/><path d="M298.4 186.2 L311 208" stroke-width="1.1" stroke-opacity="0.6"/><path d="M338 208 L373 147.4" stroke-width="1.0" stroke-opacity="0.55"/><path d="M348 208 L371 168.2" stroke-width="1.0" stroke-opacity="0.4"/><path d="M380 208 L440 104.1 L500 208 Z" stroke-width="1.1" stroke-opacity="0.85"/><path d="M410 208 L455 130.1" stroke-width="1.1" stroke-opacity="0.85"/><path d="M440 208 L470 156" stroke-width="1.1" stroke-opacity="0.85"/><path d="M454.4 208 L471.2 178.9" stroke-width="1.1" stroke-opacity="0.85"/><path d="M471.2 178.9 L488 208" stroke-width="1.1" stroke-opacity="0.85"/><path d="M518 208 L553 147.4" stroke-width="1.0" stroke-opacity="0.55"/><path d="M528 208 L551 168.2" stroke-width="1.0" stroke-opacity="0.4"/><path d="M560 208 L595 147.4 L630 208 Z" stroke-width="1.1" stroke-opacity="0.5"/><path d="M584.5 208 L607.2 168.6" stroke-width="1.1" stroke-opacity="0.5"/><path d="M603.4 208 L613.2 191" stroke-width="1.1" stroke-opacity="0.5"/><path d="M613.2 191 L623 208" stroke-width="1.1" stroke-opacity="0.5"/><path d="M648 208 L683 147.4" stroke-width="1.0" stroke-opacity="0.55"/><path d="M658 208 L681 168.2" stroke-width="1.0" stroke-opacity="0.4"/><path d="M690 208 L770 69.4 L850 208 Z" stroke-width="1.1"/><path d="M730 208 L790 104.1" stroke-width="1.1"/><path d="M770 208 L810 138.7" stroke-width="1.1"/><path d="M789.2 208 L811.6 169.2" stroke-width="1.1"/><path d="M811.6 169.2 L834 208" stroke-width="1.1"/><path d="M868 208 L903 147.4" stroke-width="1.0" stroke-opacity="0.55"/><path d="M878 208 L901 168.2" stroke-width="1.0" stroke-opacity="0.4"/><path d="M910 208 L960 121.4 L1010 208 Z" stroke-width="1.1" stroke-opacity="0.6"/><path d="M945 208 L977.5 151.7" stroke-width="1.1" stroke-opacity="0.6"/><path d="M972 208 L986 183.8" stroke-width="1.1" stroke-opacity="0.6"/><path d="M986 183.8 L1000 208" stroke-width="1.1" stroke-opacity="0.6"/><path d="M1028 208 L1063 147.4" stroke-width="1.0" stroke-opacity="0.55"/><path d="M1038 208 L1061 168.2" stroke-width="1.0" stroke-opacity="0.4"/><path d="M1070 208 L1110 138.7 L1150 208 Z" stroke-width="1.1" stroke-opacity="0.85"/><path d="M1098 208 L1124 163" stroke-width="1.1" stroke-opacity="0.85"/><path d="M1119.6 208 L1130.8 188.6" stroke-width="1.1" stroke-opacity="0.85"/><path d="M1130.8 188.6 L1142 208" stroke-width="1.1" stroke-opacity="0.85"/><path d="M1168 208 L1203 147.4" stroke-width="1.0" stroke-opacity="0.55"/><path d="M1178 208 L1201 168.2" stroke-width="1.0" stroke-opacity="0.4"/><path d="M1210 208 L1280 86.8 L1350 208 Z" stroke-width="1.1" stroke-opacity="0.5"/><path d="M1245 208 L1297.5 117.1" stroke-width="1.1" stroke-opacity="0.5"/><path d="M1280 208 L1315 147.4" stroke-width="1.1" stroke-opacity="0.5"/><path d="M1296.8 208 L1316.4 174.1" stroke-width="1.1" stroke-opacity="0.5"/><path d="M1316.4 174.1 L1336 208" stroke-width="1.1" stroke-opacity="0.5"/><path d="M1368 208 L1403 147.4" stroke-width="1.0" stroke-opacity="0.55"/><path d="M1378 208 L1401 168.2" stroke-width="1.0" stroke-opacity="0.4"/></g></svg>